HIERARCHY
ROOT Hips
{
    OFFSET 0.000000 0.000000 0.000000
    CHANNELS 6 Xposition Yposition Zposition Zrotation Xrotation Yrotation
    JOINT Spine
    {
        OFFSET -0.000000 8.349382 0.000000
        CHANNELS 3 Zrotation Xrotation Yrotation
        JOINT Spine1
        {
            OFFSET -0.000000 23.269058 0.000000
            CHANNELS 3 Zrotation Xrotation Yrotation
            JOINT Neck
            {
                OFFSET -0.000000 23.173496 2.106681
                CHANNELS 3 Zrotation Xrotation Yrotation
                JOINT Head
                {
                    OFFSET -0.000000 14.255042 -2.036435
                    CHANNELS 3 Zrotation Xrotation Yrotation
                    End Site
                    {
                        OFFSET -0.000000 25.455433 0.000000
                    }
                }
            }
            JOINT LeftShoulder
            {
                OFFSET 3.917082 21.531742 0.000256
                CHANNELS 3 Zrotation Xrotation Yrotation
                JOINT LeftArm
                {
                    OFFSET 10.728225 0.000000 0.000000
                    CHANNELS 3 Zrotation Xrotation Yrotation
                    JOINT LeftForeArm
                    {
                        OFFSET 30.046112 0.000000 0.000000
                        CHANNELS 3 Zrotation Xrotation Yrotation
                        JOINT LeftHand
                        {
                            OFFSET 29.023712 0.000000 0.000000
                            CHANNELS 3 Zrotation Xrotation Yrotation
                            End Site
                            {
                                OFFSET 15.273261 0.000000 0.000000
                            }
                        }
                    }
                }
            }
            JOINT RightShoulder
            {
                OFFSET -3.920664 21.531742 0.000256
                CHANNELS 3 Zrotation Xrotation Yrotation
                JOINT RightArm
                {
                    OFFSET -10.728225 0.000000 0.000000
                    CHANNELS 3 Zrotation Xrotation Yrotation
                    JOINT RightForeArm
                    {
                        OFFSET -30.046112 0.000000 0.000000
                        CHANNELS 3 Zrotation Xrotation Yrotation
                        JOINT RightHand
                        {
                            OFFSET -29.023712 0.000000 0.000000
                            CHANNELS 3 Zrotation Xrotation Yrotation
                            End Site
                            {
                                OFFSET -15.273261 0.000000 0.000000
                            }
                        }
                    }
                }
            }
        }
    }
    JOINT LeftUpLeg
    {
        OFFSET 10.182174 0.000000 0.000000
        CHANNELS 3 Zrotation Xrotation Yrotation
        JOINT LeftLeg
        {
            OFFSET -0.000000 -49.689274 0.000000
            CHANNELS 3 Zrotation Xrotation Yrotation
            JOINT LeftFoot
            {
                OFFSET -0.000000 -39.155319 0.000000
                CHANNELS 3 Zrotation Xrotation Yrotation
                JOINT LeftToeBase
                {
                    OFFSET -0.000000 -6.618412 15.273261
                    CHANNELS 3 Zrotation Xrotation Yrotation
                    End Site
                    {
                        OFFSET -0.000000 0.000000 4.072869
                    }
                }
            }
        }
    }
    JOINT RightUpLeg
    {
        OFFSET -10.182174 0.000000 0.000000
        CHANNELS 3 Zrotation Xrotation Yrotation
        JOINT RightLeg
        {
            OFFSET -0.000000 -49.689274 0.000000
            CHANNELS 3 Zrotation Xrotation Yrotation
            JOINT RightFoot
            {
                OFFSET -0.000000 -39.155319 0.000000
                CHANNELS 3 Zrotation Xrotation Yrotation
                JOINT RightToeBase
                {
                    OFFSET -0.000000 -6.618412 15.273261
                    CHANNELS 3 Zrotation Xrotation Yrotation
                    End Site
                    {
                        OFFSET -0.000000 0.000000 4.072869
                    }
                }
            }
        }
    }
}
MOTION
Frames:    8
Frame Time:    0.008333
-27.604645    96.230927    36.739998    -5.301423    3.374265    93.405914    -1.131422    -6.488694    3.718794    0.932926    9.586323    3.704696    -2.610017    4.184040    9.023901    -0.412744    -6.834655    9.595616    -2.083202    8.648288    -16.059122    -52.831074    43.520473    -21.593233    -6.210751    -10.638899    -7.593884    1.566597    -10.947841    7.157142    -3.690061    8.782926    -7.679143    24.947428    49.426685    61.162701    -7.268271    -8.762500    20.667648    -8.648368    -8.005432    7.417031    -2.989984    -25.116676    -9.545397    -8.105399    12.094564    0.573464    -3.008092    3.786265    14.410821    0.000000    0.000000    0.000000    0.056428    7.816223    -2.417482    5.971300    5.021703    5.331563    -6.613560    -11.029595    -8.943435    0.000000    0.000000    0.000000    
-26.810337    96.109291    36.756214    -5.609962    3.315926    93.041382    -1.091201    -6.711544    3.647861    0.860341    9.693362    3.638896    -2.841087    4.146350    9.207055    -0.391068    -7.361254    9.815092    -2.111399    8.513578    -15.859624    -52.552059    43.906174    -21.923500    -6.374309    -9.768254    -7.934887    0.374829    -10.182005    6.818552    -3.768245    8.759885    -7.617765    24.698347    49.621891    61.502190    -7.171644    -9.099627    21.199776    -9.882913    -8.390562    7.233739    -3.037073    -25.190773    -9.207212    -7.874870    9.115621    1.690212    -3.882688    5.010916    14.041230    0.000000    0.000000    0.000000    0.063871    7.988991    -2.094490    6.008561    4.951608    5.320625    -6.483160    -11.134545    -8.851208    0.000000    0.000000    0.000000    
-25.991344    95.963997    36.770672    -5.752217    3.237581    92.709160    -1.024550    -6.690410    3.568885    0.730610    9.479617    3.568192    -2.781075    4.283199    9.441139    -0.636418    -7.564366    9.997390    -2.073828    8.836576    -16.140301    -52.375511    43.903717    -22.043823    -6.458723    -8.998177    -8.297138    -0.420087    -9.485002    6.640316    -3.550454    8.977543    -7.368550    24.487608    49.496964    61.497356    -7.686184    -8.224535    21.290087    -8.591085    -7.389463    8.025036    -3.048667    -25.012583    -8.897825    -7.618999    6.268466    2.803147    -4.809080    5.785213    13.770189    0.000000    0.000000    0.000000    0.094850    8.340334    -2.034443    6.040096    4.900494    5.294793    -6.230245    -11.287878    -8.488214    0.000000    0.000000    0.000000    
-25.176043    95.812157    36.810894    -5.985702    3.097330    92.452011    -0.939316    -6.901007    3.444437    0.734594    9.756691    3.438380    -3.174647    3.858792    9.608217    -0.364521    -7.702325    10.281905    -2.049236    8.555743    -15.976102    -52.234612    44.196865    -22.292700    -6.668168    -8.132522    -8.702706    -1.261932    -8.702691    6.217483    -3.870499    8.793242    -7.519781    24.074789    49.885796    62.212997    -7.962259    -8.027215    21.587477    -8.552346    -7.133468    8.258888    -3.025864    -24.924372    -8.609682    -7.377353    3.410695    3.966669    -5.718052    6.391410    13.553236    0.000000    0.000000    0.000000    0.212915    8.599539    -1.881980    6.067206    4.846034    5.187131    -5.968979    -11.394873    -8.208478    0.000000    0.000000    0.000000    
-24.347826    95.658180    36.796268    -6.272961    3.056690    91.989792    -0.888847    -7.041797    3.399925    0.717320    9.609462    3.394324    -3.310452    3.888636    9.826977    -0.611224    -7.814605    10.472597    -2.267059    8.600089    -16.027908    -52.041405    44.520691    -22.308317    -6.735639    -7.428840    -9.132975    -1.954892    -8.063317    5.964992    -3.899112    8.870995    -7.372893    23.410765    50.110649    62.750080    -7.882451    -8.138867    21.791059    -9.106188    -7.282155    8.210517    -3.107683    -24.806454    -8.191696    -6.906683    0.666019    5.031346    -7.011718    6.566071    13.342291    0.000000    0.000000    0.000000    0.118416    8.737157    -1.804545    6.161516    4.968276    5.564405    -5.786825    -11.573426    -8.133714    0.000000    0.000000    0.000000    
-23.493511    95.502556    36.820099    -6.472814    2.899942    91.660606    -0.836409    -7.223103    3.378095    0.651236    9.673102    3.375803    -3.052624    3.831011    10.010841    -0.981851    -7.967233    10.558071    -2.009588    8.562771    -16.207230    -52.067787    44.782509    -22.573727    -6.730965    -6.765568    -9.417363    -2.576985    -7.445903    5.805043    -3.780794    8.884146    -7.391310    23.269213    50.290035    62.711109    -8.458038    -7.640685    22.003038    -7.885651    -6.606272    8.755771    -3.101702    -24.557390    -7.913613    -6.508754    -2.094854    6.752315    -8.216245    6.709836    12.682828    0.000000    0.000000    0.000000    0.243443    9.002615    -1.613779    6.142869    5.001575    5.545798    -5.391027    -11.652703    -7.886355    0.000000    0.000000    0.000000    
-22.624748    95.334991    36.791203    -6.687661    2.814160    91.386673    -0.679419    -7.169337    3.335613    0.308345    9.338721    3.353009    -2.632421    3.871791    10.210192    -1.475385    -8.004091    10.613261    -1.779401    8.580070    -16.407799    -52.239571    44.905258    -22.588856    -6.744351    -6.149201    -9.723765    -3.091817    -6.876854    5.855848    -3.400027    9.039224    -7.528470    22.999500    50.326733    62.756985    -8.162962    -7.606688    22.391518    -8.365569    -6.622467    8.549173    -3.251786    -24.310366    -7.952134    -5.976622    -4.708935    7.823453    -9.509994    6.657971    12.771201    0.000000    0.000000    0.000000    0.214067    9.226303    -1.659645    6.248267    5.198158    5.922336    -5.431715    -11.807745    -7.938553    0.000000    0.000000    0.000000    
-21.737688    95.167824    36.799530    -6.867774    2.682288    90.976181    -0.577108    -7.246906    3.265045    0.269397    9.247131    3.279814    -2.757791    3.614678    10.451033    -1.474693    -7.743802    10.888026    -1.817859    8.630944    -16.301649    -52.069275    45.202217    -22.791759    -6.556583    -5.795681    -10.153651    -4.041882    -6.591108    6.147029    -3.561463    8.978872    -7.350569    22.583151    50.800770    63.074516    -8.372068    -7.351359    22.426516    -8.378817    -6.337512    8.739408    -3.337109    -24.062103    -7.834751    -5.260831    -6.890626    8.715588    -10.498846    6.403128    12.784060    0.000000    0.000000    0.000000    0.267286    9.479985    -1.458819    6.275318    5.371112    6.046707    -5.253204    -11.937462    -7.841351    0.000000    0.000000    0.000000    
